<?xml version="1.0" standalone="no"?>
<!DOCTYPE svg PUBLIC "-//W3C//DTD SVG 20010904//EN"
 "http://www.w3.org/TR/2001/REC-SVG-20010904/DTD/svg10.dtd">
<svg version="1.0" xmlns="http://www.w3.org/2000/svg"
 width="2270.000000pt" height="2270.000000pt" viewBox="0 0 2270.000000 2270.000000"
 preserveAspectRatio="xMidYMid meet">
<metadata>
Created by potrace 1.14, written by Peter Selinger 2001-2017
</metadata>
<g transform="translate(0.000000,2270.000000) scale(0.100000,-0.100000)"
fill="#000000" stroke="none">
<path d="M3290 20346 c-3 -3 -111 -10 -240 -16 -129 -6 -260 -15 -290 -21 -30
-6 -86 -17 -125 -24 -261 -49 -542 -230 -714 -459 -47 -62 -131 -199 -131
-214 0 -3 -9 -24 -19 -46 -28 -58 -51 -123 -63 -176 -5 -25 -18 -76 -28 -115
-28 -110 -51 -205 -65 -275 -7 -36 -18 -77 -24 -92 -5 -15 -13 -62 -16 -105
-4 -43 -13 -112 -21 -153 -7 -41 -18 -122 -24 -180 -5 -58 -14 -143 -20 -190
-12 -105 -12 -618 0 -680 5 -25 14 -121 20 -215 6 -93 17 -195 25 -225 7 -30
16 -80 20 -110 3 -30 12 -75 20 -100 7 -25 17 -65 20 -90 9 -66 43 -215 67
-295 19 -66 30 -100 72 -220 9 -27 23 -72 31 -100 19 -70 44 -144 60 -180 7
-16 23 -52 35 -80 12 -27 33 -74 46 -102 13 -29 35 -77 48 -105 13 -29 34 -75
46 -103 40 -89 87 -176 185 -341 11 -18 46 -79 79 -134 32 -55 62 -103 67
-106 14 -8 10 -67 -6 -88 -8 -11 -15 -29 -15 -41 0 -11 -8 -36 -19 -55 -10
-19 -22 -51 -26 -70 -4 -19 -13 -46 -21 -60 -14 -25 -33 -77 -60 -160 -8 -25
-21 -59 -29 -77 -8 -17 -15 -37 -15 -45 0 -7 -8 -42 -19 -78 -20 -68 -44 -156
-67 -250 -7 -30 -20 -84 -29 -120 -9 -36 -22 -87 -30 -115 -8 -27 -19 -96 -24
-151 -6 -56 -15 -112 -20 -125 -5 -14 -14 -72 -20 -130 -6 -58 -16 -121 -21
-139 -20 -68 -32 -613 -21 -918 6 -160 15 -302 20 -315 5 -14 15 -69 21 -123
6 -54 17 -123 24 -154 8 -30 17 -86 20 -125 4 -38 13 -90 21 -115 14 -46 38
-134 56 -205 6 -22 19 -71 31 -110 11 -38 29 -101 40 -140 11 -38 29 -87 39
-107 10 -20 19 -43 19 -50 0 -7 7 -26 16 -43 9 -16 31 -68 49 -115 18 -47 40
-98 49 -115 9 -16 16 -35 16 -41 0 -11 44 -100 85 -169 12 -22 32 -58 44 -80
11 -22 31 -56 42 -75 12 -19 38 -64 57 -100 19 -36 40 -72 48 -81 8 -8 14 -18
14 -22 0 -3 35 -53 77 -109 43 -57 93 -125 112 -153 19 -27 39 -55 45 -62 6
-6 22 -28 36 -48 32 -47 47 -64 193 -219 218 -232 277 -288 437 -421 61 -50
160 -136 180 -155 8 -9 37 -28 64 -44 58 -34 148 -44 238 -28 62 12 77 22 153
99 41 40 55 64 68 110 21 75 21 102 0 172 -25 84 -73 140 -243 286 -236 201
-226 192 -360 335 -50 52 -200 220 -223 250 -36 45 -44 56 -126 170 -38 52
-85 116 -105 142 -20 25 -36 49 -36 54 0 6 -115 215 -140 254 -6 8 -18 31 -28
50 -9 19 -23 41 -29 48 -7 7 -13 19 -13 25 0 7 -11 35 -25 62 -13 28 -25 57
-25 65 0 9 -6 24 -14 35 -7 11 -17 31 -21 45 -4 14 -13 39 -20 55 -7 17 -23
53 -35 80 -22 50 -34 90 -65 215 -9 36 -23 81 -31 100 -7 19 -16 53 -20 75 -4
22 -12 51 -19 65 -7 14 -18 67 -24 117 -6 51 -16 104 -21 117 -5 14 -14 69
-19 123 -6 54 -15 114 -21 133 -26 86 -30 868 -5 1015 2 17 11 91 20 166 8 75
19 149 25 165 6 15 16 64 21 109 6 44 16 101 24 126 7 26 16 77 20 115 4 38
13 80 20 94 7 14 17 48 23 75 6 28 18 64 26 80 9 17 16 40 16 53 0 13 5 33 12
45 6 12 20 50 30 85 46 160 88 285 106 318 6 10 20 42 32 69 12 28 33 74 46
103 13 28 35 76 48 105 13 28 34 75 46 102 33 76 63 136 87 172 12 19 31 53
43 76 12 23 35 62 51 87 16 25 36 59 45 75 8 17 25 46 37 67 12 20 39 66 60
102 35 60 265 378 302 417 8 9 15 21 15 27 0 6 6 15 13 19 8 4 30 32 50 60 19
29 41 59 49 66 7 8 49 54 93 103 44 48 87 95 96 104 9 10 51 57 95 106 94 107
191 203 305 303 46 40 127 113 179 161 122 112 154 139 244 205 15 11 53 39
84 62 32 23 83 62 115 85 31 24 85 65 120 92 34 26 87 64 117 84 30 19 71 46
91 59 19 12 40 23 47 23 7 0 12 4 12 10 0 5 15 17 33 25 17 8 52 28 77 45 25
16 54 34 65 40 11 6 40 24 65 40 59 38 157 97 195 117 17 9 37 20 45 24 8 5
85 42 170 84 85 42 162 80 170 86 8 5 26 14 40 19 14 6 32 15 40 20 8 6 26 15
40 20 14 6 32 15 40 20 8 6 26 15 40 21 14 6 39 17 55 25 17 7 49 20 73 29
104 37 129 47 168 66 22 10 48 19 57 19 9 0 19 4 22 10 3 5 27 16 53 24 26 8
61 21 77 30 17 9 36 16 43 16 8 0 26 7 40 15 29 16 118 48 197 70 160 45 194
56 230 69 22 8 48 15 58 16 11 0 33 6 50 14 29 13 53 21 187 57 25 6 74 20
110 30 36 9 89 20 119 24 30 3 62 10 72 15 9 5 50 14 90 20 41 6 94 18 119 25
25 8 74 19 110 25 36 5 90 17 120 25 30 8 76 15 102 15 25 0 77 6 115 14 38 8
104 18 148 21 44 3 136 15 205 26 69 10 215 23 325 29 110 5 304 15 431 21
181 10 275 10 435 1 112 -7 308 -17 434 -23 127 -5 284 -18 350 -29 66 -10
154 -22 196 -25 42 -3 91 -10 110 -15 19 -6 86 -15 149 -21 63 -5 142 -16 175
-24 33 -8 83 -18 110 -24 46 -8 129 -27 230 -53 22 -5 67 -14 100 -20 33 -6
86 -19 118 -29 31 -11 71 -19 87 -19 16 0 56 -9 87 -19 32 -11 74 -23 93 -27
19 -3 48 -12 65 -20 37 -16 114 -41 180 -59 28 -8 73 -22 100 -31 129 -45 241
-82 295 -99 61 -18 129 -43 165 -60 83 -39 145 -65 155 -65 6 0 28 -9 48 -19
20 -11 62 -29 92 -41 63 -26 238 -107 260 -121 8 -5 26 -14 40 -19 14 -6 32
-15 40 -20 8 -6 25 -15 38 -20 12 -6 32 -14 45 -20 12 -5 29 -14 37 -20 8 -5
26 -14 40 -20 14 -5 32 -14 40 -20 8 -5 41 -24 73 -42 33 -18 75 -43 95 -55
21 -12 53 -30 72 -41 19 -10 53 -29 75 -42 22 -13 49 -28 60 -34 28 -16 67
-41 163 -105 46 -31 92 -61 103 -67 10 -6 27 -18 37 -27 10 -10 21 -17 25 -17
7 0 60 -36 147 -100 30 -22 66 -48 80 -57 14 -10 59 -45 101 -78 42 -33 89
-69 104 -80 44 -31 138 -108 161 -130 24 -24 190 -176 222 -204 138 -118 266
-243 349 -339 78 -90 299 -339 340 -382 18 -19 33 -37 33 -41 0 -3 12 -22 28
-41 15 -20 33 -44 40 -54 7 -11 28 -41 47 -69 19 -27 55 -79 80 -115 25 -36
63 -90 85 -120 65 -89 101 -143 112 -164 5 -12 20 -39 33 -61 22 -37 67 -120
122 -225 13 -25 34 -63 47 -85 54 -94 157 -307 171 -355 4 -14 14 -34 21 -45
8 -11 14 -26 14 -35 0 -8 12 -37 25 -65 14 -27 25 -58 25 -67 0 -9 4 -20 10
-23 5 -3 17 -31 26 -61 9 -30 22 -67 30 -82 8 -15 14 -38 14 -52 0 -14 9 -43
20 -65 11 -22 20 -51 20 -65 0 -14 9 -45 20 -69 11 -24 20 -51 20 -61 0 -9 8
-41 19 -71 10 -30 21 -80 25 -113 4 -32 14 -75 21 -95 7 -20 16 -61 19 -91 4
-30 14 -75 22 -100 7 -25 18 -97 23 -160 6 -63 15 -137 21 -165 6 -27 11 -81
13 -120 l2 -70 -3145 -1 c-1730 -1 -3149 1 -3153 3 -5 3 16 20 45 39 29 18 58
37 64 43 6 5 24 16 40 24 59 30 264 232 264 259 0 6 9 21 20 35 28 36 28 189
1 248 -64 140 -202 209 -355 181 -73 -14 -114 -40 -220 -139 -57 -53 -224
-157 -253 -157 -10 0 -38 -10 -63 -21 -40 -19 -63 -21 -195 -21 -131 0 -156 2
-195 21 -25 11 -53 21 -63 21 -26 0 -165 83 -212 126 -72 66 -139 120 -180
145 -36 21 -51 24 -147 24 -95 0 -110 -2 -137 -22 -16 -13 -35 -23 -40 -23
-21 0 -99 -108 -121 -168 -43 -119 -6 -228 123 -356 113 -112 218 -196 245
-196 5 0 17 -9 27 -20 10 -11 24 -20 30 -20 7 0 18 -6 24 -13 6 -8 30 -19 53
-26 24 -7 48 -17 53 -21 22 -17 143 -59 199 -69 60 -11 106 -33 106 -51 0 -5
-10 -15 -22 -21 -13 -7 -25 -15 -28 -19 -3 -3 -30 -23 -60 -43 -71 -48 -83
-58 -157 -143 -59 -68 -153 -197 -153 -211 0 -4 -9 -26 -20 -50 -11 -24 -29
-63 -41 -88 -21 -46 -43 -117 -59 -190 -5 -22 -9 -817 -10 -1767 0 -950 -3
-1734 -6 -1742 -8 -21 -20 -20 -79 9 -27 14 -55 25 -61 25 -6 0 -17 6 -23 14
-7 8 -25 18 -41 21 -16 3 -34 12 -40 20 -6 8 -24 17 -40 20 -16 3 -34 12 -40
20 -6 8 -26 17 -43 21 -18 4 -48 15 -67 25 -19 11 -43 19 -53 19 -10 0 -37 8
-60 19 -23 10 -58 22 -77 26 -19 4 -44 14 -55 21 -11 8 -27 14 -36 14 -9 0
-43 8 -75 19 -33 10 -86 21 -119 25 -33 4 -80 13 -105 21 -25 8 -112 24 -195
36 -188 26 -636 38 -790 20 -187 -22 -422 -65 -530 -96 -27 -8 -70 -17 -95
-20 -61 -9 -175 -42 -228 -65 -23 -11 -47 -20 -53 -20 -5 0 -29 -9 -52 -19
-24 -11 -56 -23 -72 -27 -17 -4 -39 -13 -50 -20 -11 -6 -36 -15 -55 -19 -19
-4 -44 -14 -55 -21 -11 -8 -26 -14 -35 -14 -8 0 -44 -16 -80 -35 -36 -19 -83
-44 -105 -55 -22 -11 -60 -32 -85 -46 -25 -14 -76 -42 -113 -62 -38 -21 -81
-44 -95 -52 -52 -28 -141 -11 -287 56 -16 7 -49 20 -72 29 -24 8 -62 22 -85
30 -24 9 -56 22 -73 29 -16 7 -46 19 -65 26 -19 7 -53 18 -75 26 -22 8 -51 20
-65 28 -14 8 -41 17 -60 20 -19 4 -54 12 -77 17 -32 9 -57 8 -112 -5 -126 -29
-190 -90 -231 -222 -23 -76 -21 -115 12 -199 23 -58 111 -149 166 -172 21 -8
55 -22 77 -32 22 -10 65 -28 95 -41 30 -12 73 -31 96 -41 23 -11 49 -19 58
-19 19 0 56 -35 56 -52 0 -7 -23 -38 -51 -68 -52 -56 -189 -233 -189 -244 0
-4 -17 -32 -38 -64 -21 -31 -51 -84 -66 -117 -16 -33 -36 -78 -47 -100 -26
-56 -56 -159 -69 -230 -5 -33 -14 -80 -20 -105 -14 -68 -12 -254 4 -319 8 -31
17 -84 21 -118 4 -34 15 -79 26 -100 10 -20 19 -44 19 -53 0 -9 6 -24 14 -35
7 -11 17 -31 21 -45 4 -14 15 -43 25 -65 22 -49 36 -141 72 -460 18 -166 16
-209 -17 -310 l-29 -90 -4 -440 c-3 -432 -3 -442 21 -560 22 -108 36 -149 83
-237 33 -61 18 -74 -148 -138 -137 -52 -384 -31 -488 43 -13 9 -29 17 -34 17
-42 0 -242 177 -304 270 -49 73 -121 214 -137 270 -8 25 -26 77 -40 115 -15
39 -33 90 -41 115 -8 25 -18 54 -24 65 -5 11 -16 49 -24 85 -37 164 -52 226
-59 237 -4 6 -14 42 -21 80 -18 83 -41 173 -60 233 -8 25 -18 63 -21 85 -4 22
-15 66 -26 98 -10 31 -19 65 -19 76 0 10 -7 38 -15 62 -9 24 -22 71 -30 104
-26 113 -76 277 -100 330 -7 17 -17 41 -20 55 -13 51 -50 144 -100 255 -15 33
-35 78 -45 100 -47 108 -73 159 -145 279 -11 19 -38 65 -59 103 -49 84 -92
147 -165 238 -31 39 -77 97 -101 130 -50 66 -98 114 -283 288 -92 86 -174 150
-307 240 -221 148 -281 186 -298 187 -6 0 -29 9 -49 20 -21 11 -43 20 -49 20
-6 0 -40 10 -75 22 -56 19 -85 21 -234 21 -153 0 -178 -3 -250 -25 -289 -91
-490 -271 -613 -548 -11 -25 -32 -93 -46 -151 -33 -134 -34 -259 -6 -374 11
-44 20 -87 20 -95 0 -8 8 -31 18 -50 11 -19 22 -48 26 -64 4 -16 16 -41 27
-54 10 -14 19 -28 19 -33 0 -25 137 -192 199 -244 28 -23 21 -18 202 -140 189
-126 280 -221 404 -420 31 -48 54 -96 66 -134 6 -20 17 -49 24 -66 7 -16 25
-64 40 -105 15 -41 35 -95 45 -120 24 -62 60 -183 60 -203 0 -9 9 -43 19 -74
11 -32 22 -76 26 -98 3 -22 13 -60 21 -85 18 -56 41 -146 58 -225 7 -33 20
-82 28 -110 20 -63 36 -127 49 -185 6 -25 17 -67 25 -95 8 -27 21 -77 29 -110
20 -90 70 -249 106 -337 10 -26 19 -54 19 -62 0 -9 9 -33 20 -53 11 -21 20
-44 20 -51 0 -8 7 -26 15 -40 8 -15 28 -61 46 -102 32 -76 72 -163 88 -190 6
-8 42 -73 82 -145 40 -71 98 -162 128 -202 31 -40 86 -112 124 -161 117 -153
352 -373 517 -485 30 -20 82 -57 115 -81 109 -80 382 -218 545 -276 19 -6 64
-23 100 -37 36 -13 90 -29 120 -34 29 -6 74 -16 100 -24 135 -41 282 -58 505
-58 229 -1 477 25 570 58 22 8 69 21 105 29 167 38 196 46 224 59 77 37 124
57 130 57 6 0 35 12 151 65 85 38 168 81 240 125 160 98 206 125 233 140 15 8
80 56 145 105 65 50 137 100 162 113 l43 23 39 -25 c54 -37 128 -90 174 -127
49 -39 146 -104 222 -150 32 -18 75 -44 95 -56 20 -12 53 -32 72 -43 19 -11
53 -32 75 -45 22 -13 51 -29 65 -34 14 -6 32 -16 40 -21 8 -6 26 -15 40 -20
14 -6 32 -15 40 -20 8 -6 26 -15 40 -20 14 -6 32 -15 40 -20 8 -6 26 -15 40
-21 42 -17 133 -60 162 -75 14 -8 32 -14 39 -14 7 0 31 -8 53 -19 23 -10 75
-31 116 -46 41 -15 93 -36 116 -46 22 -11 50 -19 63 -19 12 0 32 -5 44 -12 12
-6 51 -19 87 -28 36 -10 79 -22 95 -28 99 -33 167 -51 215 -58 30 -3 71 -12
90 -19 19 -7 60 -16 90 -19 30 -4 75 -14 100 -21 25 -8 95 -19 155 -25 61 -6
128 -15 150 -20 22 -6 175 -17 340 -25 259 -13 767 -15 3715 -11 2198 2 3445
7 3500 14 47 5 103 17 125 25 22 8 78 27 125 42 47 15 92 33 100 39 8 6 44 26
80 44 119 59 282 194 376 311 76 96 93 121 139 206 20 39 40 75 45 80 4 6 17
42 30 80 13 39 31 95 41 125 22 64 45 256 42 350 -4 166 -38 350 -80 438 -22
44 -33 121 -19 130 6 4 808 9 1781 12 1661 5 1772 6 1802 23 18 9 41 17 52 17
11 0 57 19 103 43 228 117 382 305 454 554 l29 98 0 3800 c0 3637 -1 3804 -18
3884 -41 188 -114 352 -220 490 -84 109 -208 216 -322 276 -38 20 -74 40 -80
44 -23 18 -222 78 -300 91 -27 5 -719 9 -1537 9 -874 1 -1497 5 -1511 10 -22
9 -24 16 -31 111 -3 56 -11 121 -16 146 -6 25 -15 98 -20 162 -5 65 -14 131
-20 148 -6 17 -17 68 -24 115 -34 207 -72 367 -143 594 -9 28 -22 73 -29 100
-15 61 -41 139 -59 180 -7 17 -25 64 -40 105 -15 41 -35 93 -45 115 -10 22
-21 55 -25 72 -4 18 -11 35 -16 38 -12 8 -11 52 2 60 5 4 14 17 20 28 5 12 23
45 39 72 16 28 39 66 50 85 11 19 29 50 40 68 42 68 60 100 109 186 28 49 51
91 51 94 0 3 9 25 20 49 11 24 29 64 41 91 12 26 32 71 45 100 13 28 36 78 50
110 14 31 32 68 39 82 7 14 16 41 20 60 4 19 13 48 21 65 7 16 25 71 40 120
15 50 35 111 45 137 11 26 19 55 19 65 1 10 9 36 20 58 11 22 19 49 20 61 0
11 9 54 19 95 10 41 22 97 26 124 3 28 12 73 20 100 26 95 47 221 56 335 5 63
17 174 27 245 21 164 20 729 -3 860 -7 44 -16 118 -20 165 -4 47 -11 105 -16
130 -6 25 -14 83 -19 130 -5 47 -18 119 -29 160 -36 137 -59 231 -96 395 -9
39 -22 84 -30 102 -8 17 -15 36 -15 43 0 12 -44 114 -61 140 -5 8 -15 26 -21
40 -18 37 -95 148 -141 203 -60 73 -123 131 -233 212 -72 53 -240 138 -296
150 -18 4 -38 11 -44 16 -7 5 -47 16 -90 24 -44 7 -101 18 -129 24 -44 9 -455
34 -575 35 -133 0 -620 -25 -650 -34 -19 -6 -90 -17 -158 -25 -68 -8 -140 -19
-160 -24 -20 -5 -62 -12 -92 -16 -30 -3 -84 -14 -120 -25 -36 -10 -87 -24
-115 -30 -27 -7 -68 -17 -90 -22 -22 -6 -67 -18 -100 -28 -33 -10 -78 -21
-100 -25 -22 -4 -51 -13 -65 -20 -14 -7 -59 -25 -100 -40 -41 -15 -95 -35
-120 -45 -25 -9 -61 -23 -80 -30 -137 -48 -98 -31 -412 -187 -280 -139 -294
-146 -317 -167 -10 -9 -20 -16 -24 -16 -3 0 -45 -26 -94 -58 -48 -32 -135 -90
-193 -128 -57 -38 -111 -75 -120 -82 -8 -7 -55 -45 -105 -84 -49 -39 -99 -79
-110 -89 -68 -60 -178 -139 -194 -139 -10 0 -38 9 -62 20 -24 11 -55 20 -69
20 -14 0 -38 7 -54 15 -16 8 -54 22 -85 29 -54 14 -124 36 -186 57 -16 6 -52
17 -80 25 -27 7 -72 20 -100 29 -120 38 -154 47 -220 60 -118 23 -177 36 -255
55 -41 10 -95 21 -120 25 -25 3 -65 13 -90 20 -25 8 -67 17 -95 20 -27 4 -70
13 -95 20 -25 8 -99 19 -165 24 -66 6 -134 15 -152 20 -17 5 -71 12 -120 16
-48 3 -142 15 -208 25 -66 11 -217 24 -335 30 -118 5 -296 15 -395 21 -191 12
-566 7 -820 -10 -82 -6 -226 -15 -320 -21 -93 -5 -185 -14 -204 -19 -19 -6
-91 -15 -160 -21 -69 -6 -146 -16 -171 -21 -25 -6 -94 -15 -155 -20 -60 -5
-126 -14 -145 -20 -19 -5 -69 -16 -110 -24 -41 -7 -104 -20 -140 -28 -122 -29
-165 -38 -220 -48 -30 -6 -86 -19 -125 -30 -38 -10 -82 -19 -97 -19 -16 0 -56
-9 -90 -20 -35 -11 -92 -29 -128 -40 -36 -10 -87 -26 -115 -35 -125 -39 -184
-57 -230 -70 -27 -7 -68 -20 -90 -28 -92 -33 -171 -57 -188 -57 -11 0 -65 37
-120 83 -209 171 -353 284 -392 308 -64 39 -70 43 -116 73 -24 15 -60 38 -79
50 -19 13 -67 44 -106 70 -39 26 -186 104 -326 174 -258 129 -278 138 -358
167 -25 9 -63 23 -85 31 -22 8 -54 21 -72 29 -17 8 -37 15 -43 15 -7 0 -31 8
-54 19 -71 32 -149 60 -196 70 -52 11 -138 34 -230 62 -36 11 -73 19 -82 19
-10 0 -44 8 -75 19 -64 21 -221 49 -353 62 -47 5 -116 16 -155 25 -45 10 -160
19 -320 24 -137 5 -281 12 -320 15 -38 4 -72 4 -75 1z m585 -668 c28 -6 68
-14 90 -19 22 -4 73 -8 112 -9 44 0 96 -8 130 -19 32 -11 85 -22 118 -26 33
-4 65 -11 72 -16 6 -6 46 -16 90 -24 90 -16 191 -44 245 -68 21 -10 47 -17 58
-17 12 0 35 -7 52 -16 17 -9 51 -22 77 -29 81 -23 126 -41 266 -106 22 -10 63
-28 90 -39 28 -12 73 -32 100 -45 28 -12 57 -26 65 -29 8 -3 29 -15 45 -26 17
-11 47 -28 68 -37 20 -9 37 -19 37 -23 0 -4 17 -15 38 -25 20 -9 55 -27 77
-40 22 -13 56 -34 75 -45 64 -38 137 -88 164 -112 11 -10 23 -18 28 -18 4 0
17 -8 27 -17 10 -10 36 -29 56 -43 21 -14 48 -36 62 -50 l24 -24 -33 -18 c-18
-9 -40 -20 -48 -24 -38 -17 -237 -116 -250 -124 -8 -6 -26 -14 -40 -20 -14 -5
-32 -14 -40 -20 -8 -5 -26 -14 -40 -20 -14 -5 -32 -14 -40 -20 -8 -5 -26 -15
-40 -20 -14 -6 -47 -24 -75 -40 -27 -16 -60 -33 -72 -39 -12 -5 -45 -26 -72
-46 -28 -19 -55 -35 -61 -35 -5 0 -18 -8 -28 -17 -9 -10 -28 -24 -42 -31 -14
-7 -43 -24 -65 -37 -22 -13 -56 -33 -75 -45 -50 -29 -72 -43 -99 -62 -25 -19
-91 -25 -91 -9 0 5 -24 27 -52 48 -51 37 -65 48 -108 86 -11 9 -24 17 -28 17
-5 0 -18 10 -30 23 -27 29 -35 35 -107 82 -33 22 -62 42 -65 46 -3 3 -20 14
-37 23 -18 9 -33 21 -33 26 0 6 -6 10 -14 10 -7 0 -25 11 -40 25 -15 14 -33
25 -40 25 -7 0 -21 9 -31 20 -10 11 -23 20 -30 20 -7 0 -20 9 -30 20 -10 11
-26 20 -35 20 -10 0 -23 7 -30 16 -8 8 -27 22 -44 30 -17 8 -49 25 -71 38 -22
14 -53 32 -70 41 -16 8 -48 27 -70 40 -22 14 -47 27 -55 31 -20 8 -298 142
-330 159 -14 7 -41 16 -60 20 -19 4 -42 13 -50 20 -8 7 -29 16 -47 19 -17 4
-48 16 -69 27 -21 10 -45 19 -52 19 -8 0 -29 8 -46 19 -17 10 -47 21 -67 25
-21 4 -42 13 -49 21 -7 8 -22 15 -34 15 -12 0 -37 9 -57 19 -20 11 -54 23 -75
27 -22 3 -45 11 -52 17 -7 6 -41 16 -75 23 -34 7 -80 19 -102 28 -22 8 -50 15
-62 16 -12 0 -45 9 -73 20 -28 11 -63 20 -78 20 -27 1 -158 58 -135 59 6 1 14
10 18 20 7 23 116 136 160 167 17 12 42 25 55 29 14 4 32 14 41 21 9 8 41 19
72 24 31 5 66 14 78 21 50 26 926 33 1054 7z m13142 13 c128 -6 241 -14 251
-20 10 -6 47 -15 82 -20 35 -6 66 -15 69 -20 3 -5 22 -16 41 -25 47 -22 70
-36 104 -66 48 -41 106 -104 106 -116 0 -6 7 -17 15 -24 8 -7 15 -15 15 -19 0
-7 -56 -28 -115 -42 -22 -6 -60 -17 -85 -25 -25 -9 -73 -21 -107 -28 -34 -7
-68 -17 -75 -23 -7 -6 -35 -14 -63 -18 -27 -4 -61 -13 -75 -20 -14 -7 -42 -16
-63 -20 -20 -4 -54 -16 -74 -26 -21 -11 -44 -19 -53 -19 -9 0 -25 -7 -36 -14
-12 -8 -42 -20 -67 -27 -26 -6 -47 -15 -47 -19 0 -4 -21 -13 -47 -19 -25 -7
-55 -19 -67 -27 -11 -7 -27 -14 -36 -14 -9 0 -33 -9 -55 -20 -21 -11 -54 -23
-72 -26 -18 -3 -35 -10 -38 -14 -3 -5 -28 -16 -55 -25 -28 -9 -50 -21 -50 -26
0 -5 -5 -9 -11 -9 -10 0 -127 -55 -169 -79 -8 -5 -26 -14 -40 -20 -14 -6 -32
-15 -40 -20 -8 -5 -26 -14 -40 -20 -14 -7 -43 -23 -65 -36 -22 -14 -53 -32
-70 -40 -16 -9 -50 -29 -75 -45 -25 -16 -52 -33 -60 -36 -8 -4 -53 -32 -98
-63 -46 -31 -91 -61 -100 -66 -16 -10 -73 -48 -127 -85 -12 -8 -35 -24 -51
-35 -28 -18 -112 -84 -144 -112 -8 -8 -33 -27 -55 -43 -22 -17 -50 -38 -63
-48 -13 -9 -31 -25 -40 -34 -22 -24 -68 -23 -99 2 -14 11 -31 20 -38 20 -7 0
-18 7 -25 16 -8 8 -27 22 -44 30 -17 7 -43 22 -57 31 -46 32 -89 58 -149 93
-19 11 -48 29 -65 40 -16 11 -43 27 -60 35 -16 9 -50 29 -75 45 -25 16 -52 32
-60 36 -16 6 -384 189 -410 203 -8 5 -41 21 -72 36 -32 15 -58 31 -58 35 0 5
15 20 33 34 17 14 39 32 47 39 15 13 118 84 149 102 9 6 23 16 31 23 27 23
141 94 176 108 19 8 34 18 34 23 0 5 12 12 26 15 14 4 38 15 53 24 46 31 65
42 98 57 17 8 34 19 37 24 4 5 23 15 44 22 20 6 44 17 52 24 8 7 29 16 45 19
17 4 37 13 45 20 8 8 29 17 45 20 17 4 37 13 45 20 8 8 29 17 45 20 17 4 37
14 45 21 8 7 34 18 57 24 23 6 54 18 70 26 15 8 36 15 46 15 10 0 39 8 65 18
73 29 143 52 197 66 28 7 59 17 70 23 11 6 47 14 80 18 33 4 74 13 92 20 17 7
58 17 90 20 32 4 74 14 93 22 19 8 92 19 161 24 69 4 139 14 155 20 26 11 128
16 509 27 50 1 194 -2 322 -7z m-14684 -986 c12 -8 37 -15 57 -15 19 -1 53 -8
75 -16 22 -9 67 -22 100 -29 33 -8 78 -20 100 -29 22 -8 48 -15 57 -16 10 0
37 -8 60 -19 24 -10 59 -24 78 -31 19 -7 53 -18 75 -26 22 -8 52 -21 67 -29
14 -8 34 -15 45 -15 10 0 41 -12 68 -25 28 -14 57 -25 65 -25 9 0 33 -9 55
-20 22 -11 45 -20 53 -20 8 0 25 -9 39 -20 14 -11 33 -20 43 -20 10 0 29 -9
43 -20 14 -11 30 -20 36 -20 5 0 31 -11 57 -25 26 -14 53 -25 60 -25 8 0 14
-4 14 -9 0 -5 17 -16 38 -26 50 -23 105 -52 118 -64 7 -5 27 -17 45 -25 37
-17 44 -21 140 -83 36 -24 71 -43 77 -43 7 0 12 -5 12 -11 0 -5 16 -17 35 -25
19 -8 35 -19 35 -24 0 -6 6 -10 14 -10 8 0 28 -11 44 -25 17 -14 35 -25 41
-25 5 0 15 -9 21 -20 6 -11 16 -20 21 -20 6 0 25 -11 43 -25 17 -14 40 -31 51
-39 11 -9 36 -27 55 -43 19 -15 37 -28 39 -30 3 -2 -10 -16 -28 -31 -18 -15
-51 -44 -73 -64 -22 -21 -44 -38 -48 -38 -5 0 -13 -6 -17 -13 -4 -8 -39 -41
-78 -75 -178 -154 -425 -386 -425 -398 0 -3 -28 -33 -62 -68 -112 -111 -285
-300 -323 -351 -21 -27 -45 -58 -54 -67 -9 -10 -24 -28 -33 -40 -67 -88 -80
-105 -96 -125 -9 -13 -26 -34 -37 -47 -11 -13 -28 -35 -38 -48 -9 -12 -37 -49
-62 -80 -25 -31 -45 -61 -45 -66 0 -5 -9 -17 -20 -27 -11 -10 -20 -24 -20 -31
0 -7 -11 -25 -25 -40 -14 -15 -25 -31 -25 -35 0 -7 -39 -69 -102 -161 -10 -15
-18 -30 -18 -34 0 -3 -11 -19 -25 -36 -14 -16 -25 -35 -25 -43 0 -17 -42 -27
-52 -12 -4 7 -8 19 -8 28 0 9 -7 22 -14 29 -8 6 -20 28 -27 48 -6 20 -17 44
-24 52 -8 8 -16 27 -20 42 -4 15 -13 32 -21 39 -8 6 -14 19 -14 29 0 9 -9 28
-19 42 -11 13 -23 38 -27 54 -4 16 -15 45 -26 64 -10 19 -18 44 -18 55 0 11
-9 34 -20 50 -11 17 -20 39 -20 50 0 11 -8 36 -19 55 -10 19 -22 51 -26 70 -4
19 -13 44 -21 55 -7 11 -17 43 -22 70 -6 28 -17 68 -26 90 -8 22 -15 56 -16
75 0 20 -6 45 -14 56 -8 12 -18 45 -21 75 -4 30 -13 72 -22 94 -8 22 -19 86
-24 142 -5 56 -14 114 -20 130 -6 15 -15 95 -20 178 -4 82 -13 207 -20 277
-10 102 -10 168 0 335 7 114 16 267 21 338 4 72 12 142 18 157 6 14 14 55 18
90 4 34 9 67 12 72 7 12 90 -1 115 -19z m15541 13 c24 -78 47 -233 56 -363 32
-480 33 -534 17 -670 -9 -71 -19 -182 -22 -245 -4 -63 -13 -142 -21 -175 -9
-33 -20 -102 -24 -153 -5 -51 -15 -102 -21 -113 -6 -12 -15 -49 -20 -83 -4
-35 -15 -75 -23 -91 -8 -15 -17 -51 -21 -79 -4 -28 -12 -64 -20 -81 -7 -16
-16 -48 -20 -70 -4 -22 -15 -58 -25 -80 -10 -22 -23 -55 -29 -72 -6 -18 -16
-48 -22 -65 -6 -18 -19 -51 -29 -73 -10 -22 -22 -56 -25 -75 -4 -19 -13 -42
-20 -50 -7 -8 -15 -28 -19 -44 -4 -16 -16 -41 -27 -54 -10 -14 -19 -31 -19
-39 0 -8 -9 -26 -20 -40 -11 -14 -20 -32 -20 -40 0 -8 -9 -26 -20 -40 -11 -14
-20 -32 -20 -40 0 -8 -9 -26 -20 -40 -11 -14 -20 -34 -20 -44 0 -41 -42 -33
-67 14 -8 17 -22 37 -29 45 -8 7 -14 19 -14 26 0 7 -9 21 -20 31 -11 10 -20
23 -20 30 0 7 -9 20 -20 30 -11 10 -20 22 -20 26 0 13 -63 109 -71 109 -5 0
-9 5 -9 12 0 12 -36 69 -75 119 -11 15 -29 39 -40 54 -34 47 -145 189 -165
211 -11 12 -20 25 -20 29 0 4 -10 18 -22 31 -46 47 -58 61 -58 69 0 9 -78 102
-135 161 -22 23 -85 90 -140 149 -143 152 -281 290 -359 360 -37 33 -98 88
-136 123 -37 34 -85 76 -107 93 -21 17 -42 37 -46 45 -4 8 -12 14 -17 14 -8 0
-62 48 -123 108 -26 26 -26 27 -7 36 11 5 20 12 20 16 0 4 24 22 53 40 28 18
59 39 67 47 31 27 77 61 128 93 28 18 52 37 52 41 0 4 11 10 24 13 14 3 31 12
38 19 21 19 76 57 84 57 3 0 20 10 37 22 31 22 59 38 122 72 17 9 48 27 70 41
22 13 51 29 65 34 14 6 32 15 40 21 15 9 110 56 160 79 14 6 32 15 40 19 54
31 101 52 112 52 7 0 29 8 48 19 19 10 51 22 70 26 19 4 42 13 50 20 8 7 31
16 50 20 19 4 44 12 55 19 11 7 40 18 65 25 25 7 54 19 65 27 11 8 29 14 40
14 11 0 34 7 50 16 17 9 57 23 89 30 33 8 65 18 70 23 6 5 36 11 66 15 30 4
64 13 75 20 11 8 45 17 75 21 30 4 64 13 75 20 40 25 113 33 119 13z m3335
-6239 c94 -26 207 -98 242 -153 13 -21 33 -50 44 -64 11 -15 31 -62 45 -107
l24 -80 3 -2908 c2 -2009 0 -2914 -7 -2927 -10 -19 -24 -20 -418 -20 -361 -1
-414 -3 -472 -19 -138 -38 -210 -120 -236 -271 -20 -113 -12 -144 68 -257 13
-18 28 -33 35 -33 6 0 25 -11 41 -25 19 -16 42 -25 63 -25 19 0 47 -7 63 -15
24 -13 94 -15 437 -15 l409 0 0 -469 c0 -294 -4 -472 -10 -476 -5 -3 -14 -24
-20 -46 -6 -22 -18 -43 -26 -46 -7 -3 -14 -11 -14 -19 0 -7 -11 -16 -25 -20
-14 -3 -29 -14 -34 -23 -9 -15 -424 -16 -5485 -19 l-5476 -2 0 560 0 560 4419
0 c3900 0 4422 2 4447 15 16 8 46 15 66 15 22 0 44 7 55 18 10 10 29 23 43 30
14 7 46 44 72 82 52 77 60 120 40 217 -30 140 -113 231 -242 265 -61 16 -357
17 -4481 17 -3718 1 -4418 3 -4428 15 -8 10 -11 774 -9 2947 l3 2934 24 65
c31 84 108 188 161 220 23 14 48 31 56 38 7 7 49 24 91 37 l78 24 5139 0 5140
1 75 -21z m-12843 -4018 c22 -6 100 -14 172 -19 73 -5 138 -15 146 -21 8 -7
45 -17 82 -23 38 -5 77 -16 89 -23 11 -7 43 -15 70 -19 48 -6 111 -27 205 -69
25 -11 64 -28 88 -38 100 -44 130 -58 187 -85 33 -16 62 -32 63 -37 2 -4 20
-17 40 -28 42 -22 71 -41 136 -86 26 -18 50 -33 54 -33 4 0 29 -20 55 -43 l47
-44 0 -822 0 -821 -26 -10 c-14 -6 -88 -10 -165 -10 -137 0 -141 1 -163 25
-27 29 -115 158 -133 195 -7 14 -21 37 -30 51 -10 14 -27 39 -38 55 -46 69
-145 184 -204 238 -19 17 -43 39 -53 49 -10 9 -22 17 -27 17 -6 0 -16 8 -23
18 -23 31 -232 152 -262 152 -6 0 -27 8 -46 19 -19 10 -54 22 -78 26 -23 4
-56 13 -71 21 -53 26 -339 40 -534 25 -100 -8 -183 -19 -198 -26 -14 -8 -50
-17 -80 -21 -30 -3 -73 -15 -96 -25 -23 -11 -49 -19 -57 -19 -9 0 -33 -9 -53
-20 -21 -11 -43 -20 -49 -20 -14 0 -117 -51 -124 -62 -3 -4 -21 -14 -40 -23
-19 -9 -53 -27 -75 -40 -22 -13 -51 -29 -64 -35 -55 -25 -209 -168 -256 -240
-36 -53 -41 -59 -105 -127 -27 -29 -52 -53 -56 -53 -4 0 -22 -11 -40 -25 -18
-14 -36 -25 -41 -25 -5 0 -16 -8 -24 -19 -9 -10 -35 -21 -58 -25 -23 -3 -54
-14 -69 -24 -40 -26 -317 -22 -370 6 -20 10 -53 22 -73 26 -21 3 -42 13 -49
21 -7 8 -18 15 -25 15 -17 0 -111 74 -152 119 -18 20 -38 43 -46 51 -20 21
-67 112 -67 129 0 8 -7 22 -16 32 -34 38 -67 283 -45 337 6 15 16 54 21 87 5
33 14 61 20 63 5 2 10 8 10 13 0 13 26 69 47 100 10 14 41 59 68 99 28 40 57
82 65 94 14 21 112 125 205 218 34 35 169 141 304 240 20 15 64 41 98 58 35
17 65 36 69 41 3 5 20 16 37 24 18 8 50 26 72 40 50 30 83 45 99 45 8 0 19 6
25 14 7 8 27 18 44 22 18 3 48 14 67 24 94 47 183 81 275 104 28 7 59 17 70
23 11 6 40 14 65 18 25 4 55 14 68 22 13 8 61 18 107 23 46 5 93 13 104 19 11
6 64 15 118 21 54 5 130 14 168 20 39 6 88 12 110 14 69 7 368 -3 411 -13z
m-6505 -758 c19 -10 49 -29 66 -41 17 -12 36 -22 42 -22 6 0 11 -5 11 -10 0
-6 8 -14 18 -17 9 -4 31 -17 48 -30 17 -13 36 -23 42 -23 7 0 12 -4 12 -8 0
-5 28 -27 63 -49 55 -36 294 -264 339 -325 10 -13 53 -68 97 -123 80 -102 110
-145 135 -201 8 -17 22 -36 30 -44 9 -7 16 -20 16 -30 0 -10 7 -23 16 -30 8
-8 22 -27 29 -44 8 -17 19 -38 23 -46 5 -8 18 -35 30 -60 52 -112 72 -160 72
-173 0 -8 6 -20 14 -26 8 -6 19 -32 25 -58 7 -25 19 -55 27 -67 7 -11 14 -32
14 -46 0 -14 8 -41 19 -60 10 -19 21 -53 25 -74 4 -21 13 -48 21 -60 7 -12 16
-42 19 -68 4 -26 16 -72 27 -102 10 -31 19 -68 19 -83 0 -16 7 -41 15 -57 9
-16 20 -58 25 -93 5 -36 13 -70 19 -77 5 -6 15 -41 20 -78 6 -36 18 -79 26
-94 8 -16 15 -45 15 -64 1 -19 8 -53 16 -75 9 -22 20 -67 26 -100 6 -33 16
-71 23 -85 7 -14 16 -50 20 -80 4 -30 13 -67 21 -81 7 -15 16 -46 20 -70 4
-24 15 -60 26 -79 10 -19 18 -46 18 -60 0 -14 9 -42 20 -63 11 -20 20 -45 20
-54 0 -10 9 -33 20 -51 11 -18 20 -39 20 -47 0 -14 38 -97 61 -135 5 -8 14
-26 19 -40 6 -14 15 -32 20 -40 6 -8 18 -31 26 -50 9 -19 19 -37 23 -40 4 -3
17 -21 29 -41 12 -20 34 -52 49 -71 16 -20 37 -48 48 -64 28 -38 184 -195 219
-219 16 -11 40 -29 55 -40 14 -11 46 -34 71 -50 25 -17 51 -35 57 -42 7 -6 26
-14 42 -18 16 -3 35 -12 41 -20 6 -8 24 -17 40 -20 16 -3 34 -13 41 -21 6 -8
17 -14 23 -14 7 0 30 -10 51 -21 22 -12 58 -25 80 -29 22 -5 60 -16 85 -26 38
-14 80 -17 275 -17 208 0 235 2 285 21 30 11 76 23 102 27 26 3 50 10 53 15 3
5 25 14 48 21 23 6 49 17 57 24 8 7 33 18 55 24 22 6 49 18 59 26 11 8 26 15
32 15 12 0 65 32 109 65 10 8 23 15 28 15 4 0 36 19 70 41 l62 42 94 -7 c51
-4 103 -12 115 -18 11 -6 41 -34 66 -62 25 -27 55 -60 68 -72 12 -12 22 -26
22 -33 0 -6 4 -11 8 -11 4 0 34 -32 66 -71 69 -85 69 -99 -9 -149 -30 -19 -55
-38 -55 -43 0 -4 -10 -12 -22 -17 -13 -6 -43 -24 -68 -40 -25 -16 -55 -34 -66
-39 -12 -5 -48 -28 -80 -50 -33 -23 -63 -41 -67 -41 -5 0 -20 -9 -34 -20 -14
-11 -33 -20 -43 -20 -10 0 -29 -9 -43 -20 -14 -11 -33 -20 -42 -20 -9 0 -33
-9 -53 -20 -68 -36 -149 -70 -168 -70 -11 0 -29 -7 -40 -15 -12 -8 -48 -18
-80 -24 -32 -5 -75 -16 -94 -24 -19 -8 -64 -18 -100 -21 -36 -4 -105 -14 -155
-23 -100 -17 -377 -13 -427 6 -15 6 -64 15 -109 21 -45 5 -87 14 -94 20 -7 6
-38 15 -70 21 -32 6 -64 17 -72 25 -8 8 -24 14 -36 14 -12 0 -44 11 -72 25
-27 13 -58 25 -67 25 -9 0 -20 5 -24 11 -3 6 -25 19 -49 29 -24 10 -46 23 -49
29 -4 6 -14 11 -23 11 -9 0 -59 30 -112 66 -53 36 -112 76 -131 89 -19 14 -42
31 -51 40 -9 8 -20 15 -26 15 -5 0 -70 60 -144 134 -131 130 -159 160 -189
206 -14 20 -45 63 -84 115 -9 11 -25 32 -36 46 -11 15 -24 37 -30 50 -6 13
-24 47 -40 74 -16 28 -36 67 -45 88 -10 20 -21 37 -25 37 -4 0 -11 15 -14 34
-4 19 -13 39 -21 46 -8 7 -15 20 -15 29 0 9 -11 39 -25 66 -13 28 -25 56 -25
63 0 6 -9 29 -20 49 -11 21 -20 49 -20 63 0 14 -9 39 -20 55 -11 17 -20 40
-20 53 0 13 -9 44 -19 70 -11 26 -25 73 -31 104 -6 32 -15 60 -20 63 -4 2 -11
31 -15 62 -4 32 -13 72 -21 88 -7 17 -18 59 -23 93 -6 35 -15 70 -20 76 -6 7
-15 41 -20 77 -5 35 -16 81 -25 101 -9 21 -16 52 -16 70 0 18 -9 51 -19 73
-10 22 -21 64 -25 94 -4 30 -13 66 -20 80 -8 14 -17 49 -21 77 -3 28 -12 63
-20 77 -7 14 -16 49 -20 79 -4 29 -13 62 -20 74 -8 12 -17 39 -21 60 -4 21
-15 56 -25 76 -11 21 -19 47 -19 59 0 12 -9 36 -19 53 -10 17 -22 45 -26 63
-3 17 -13 37 -21 44 -8 6 -14 20 -14 30 0 18 -35 89 -92 188 -14 25 -33 60
-42 76 -22 42 -35 61 -83 125 -24 30 -51 66 -60 79 -41 54 -268 266 -317 296
-85 51 -212 142 -262 187 -97 89 -135 212 -95 304 12 26 21 51 21 56 0 24 84
108 132 131 80 40 204 39 279 0z m6459 -1233 c19 -5 58 -17 85 -27 110 -40
282 -180 255 -207 -13 -13 -1197 -16 -1230 -4 -28 10 -25 20 12 43 18 11 44
28 58 37 14 10 32 21 40 24 8 4 42 19 75 34 104 47 209 81 315 99 64 12 348
12 390 1z m1423 -930 c16 0 17 -33 17 -545 l0 -545 -1908 0 c-1895 0 -1908 0
-1925 20 -9 11 -28 20 -42 20 -16 0 -25 6 -25 16 0 9 -9 18 -19 21 -14 4 -21
17 -26 53 -4 27 -13 54 -21 61 -12 9 -14 72 -14 360 0 198 4 349 9 349 11 0
21 26 27 70 2 19 11 40 19 46 8 6 15 16 15 23 0 6 6 11 14 11 8 0 21 9 29 20
11 16 27 20 98 22 66 2 1408 2 3752 -2z m4087 -1779 c58 -36 106 -80 156 -145
30 -38 54 -75 54 -81 0 -7 6 -18 14 -24 7 -6 16 -28 19 -47 4 -20 14 -45 24
-56 16 -18 18 -41 18 -197 -1 -162 -3 -179 -23 -216 -12 -21 -22 -47 -22 -56
0 -9 -7 -22 -15 -29 -8 -6 -17 -22 -21 -33 -4 -12 -18 -35 -31 -52 -13 -16
-32 -40 -41 -53 -9 -12 -23 -30 -31 -38 -20 -23 -119 -94 -129 -94 -5 0 -15
-7 -22 -15 -7 -8 -35 -22 -62 -30 -28 -8 -57 -20 -66 -27 -12 -10 -423 -13
-2051 -13 -1928 0 -2039 1 -2094 18 -34 10 -106 20 -175 23 -64 3 -133 12
-152 19 -19 7 -60 16 -90 20 -30 4 -69 13 -85 20 -17 6 -53 15 -80 19 -28 4
-75 15 -105 25 -30 10 -95 31 -145 46 -49 15 -105 33 -123 41 -18 8 -41 14
-50 14 -10 0 -35 9 -57 20 -22 11 -43 20 -49 20 -5 0 -27 9 -50 19 -89 42
-155 71 -162 71 -4 0 -25 8 -48 19 -23 10 -52 24 -66 30 -14 6 -61 31 -105 56
-44 25 -91 50 -105 57 -33 16 -182 100 -195 110 -5 5 -79 54 -163 109 -83 56
-169 116 -190 135 -43 38 -36 33 -127 103 -38 30 -96 80 -128 110 -32 31 -64
59 -72 64 -8 4 -15 13 -15 19 0 6 -7 20 -17 30 -16 18 87 18 3418 12 3091 -6
3436 -9 3459 -23z m3285 3 c33 -11 66 -35 113 -84 75 -76 102 -107 102 -116 0
-3 9 -18 19 -33 10 -14 24 -45 30 -68 6 -23 16 -43 22 -45 13 -4 29 -193 23
-268 -9 -101 -15 -139 -25 -145 -5 -4 -14 -26 -20 -50 -6 -25 -17 -50 -25 -56
-8 -6 -14 -17 -14 -24 0 -23 -139 -185 -159 -185 -5 0 -14 -7 -22 -16 -18 -22
-79 -54 -184 -95 l-60 -24 -1140 0 -1140 0 2 33 c0 18 8 41 16 50 9 9 19 31
23 47 4 17 16 44 26 60 10 17 18 41 18 55 0 14 6 35 14 46 8 11 22 74 31 140
27 199 29 245 11 316 -9 35 -16 98 -16 139 0 56 -5 82 -20 107 -11 18 -20 45
-20 61 0 16 -9 40 -20 54 -19 24 -28 96 -14 110 4 4 542 7 1195 7 1052 0 1194
-2 1234 -16z"/>
<path d="M11050 11285 l0 -85 -85 0 -85 0 0 -85 0 -85 -85 0 -85 0 0 -260 0
-260 85 0 85 0 0 -85 0 -85 85 0 85 0 0 -85 0 -85 345 0 345 0 0 85 0 85 85 0
85 0 0 90 0 90 -170 0 -169 0 -3 -87 -3 -88 -164 -3 c-125 -2 -166 1 -173 10
-4 7 -8 48 -8 91 l0 77 -85 0 -85 0 0 255 0 255 85 0 84 0 3 83 3 82 173 3
172 2 0 -85 0 -85 170 0 170 0 0 85 0 85 -85 0 -85 0 0 85 0 85 -345 0 -345 0
0 -85z"/>
<path d="M18080 11200 l0 -170 -170 0 -170 0 0 -85 0 -85 170 0 170 0 0 -345
0 -345 175 0 175 0 0 345 0 345 170 0 170 0 0 85 0 85 -170 0 -170 0 0 170 0
170 -175 0 -175 0 0 -170z"/>
<path d="M12250 10945 l0 -85 -85 0 -85 0 0 -260 0 -260 85 0 85 0 0 -85 0
-85 430 0 430 0 0 85 0 85 85 0 85 0 0 260 0 260 -85 0 -85 0 0 85 0 85 -430
0 -430 0 0 -85z m685 -345 l0 -255 -255 0 -255 0 -3 245 c-1 134 0 250 3 257
3 11 59 13 257 11 l253 -3 0 -255z"/>
<path d="M13450 10600 l0 -430 85 0 85 0 0 345 0 345 85 0 85 0 0 -345 0 -345
173 2 172 3 3 343 2 343 83 -3 82 -3 3 -342 2 -343 170 0 170 0 0 345 0 345
-85 0 -85 0 0 85 0 85 -515 0 -515 0 0 -430z"/>
<path d="M14820 10515 l0 -515 170 0 170 0 0 170 0 170 345 0 345 0 0 85 0 84
83 3 82 3 3 173 2 172 -85 0 -85 0 0 85 0 85 -515 0 -515 0 0 -515z m858 173
l2 -168 -260 0 -260 0 0 163 c0 90 3 167 7 171 4 3 119 5 257 4 l251 -3 3
-167z"/>
<path d="M16190 10685 l0 -345 85 0 85 0 0 -85 0 -85 515 0 515 0 0 430 0 430
-170 0 -170 0 -2 -342 -3 -343 -255 0 -255 0 -3 343 -2 342 -170 0 -170 0 0
-345z"/>
<path d="M19110 10945 l0 -85 -85 0 -85 0 0 -260 0 -260 85 0 85 0 0 -85 0
-85 430 0 430 0 0 85 0 85 -342 2 -343 3 -3 83 -3 82 431 0 430 0 0 175 0 175
-85 0 -85 0 0 85 0 85 -430 0 -430 0 0 -85z m688 -172 l3 -83 -261 0 -260 0 0
78 c0 43 3 82 7 86 4 3 119 5 257 4 l251 -3 3 -82z"/>
<path d="M20480 10600 l0 -430 170 0 170 0 2 258 3 257 88 3 87 3 0 84 0 85
255 0 255 0 0 85 0 85 -257 -2 -258 -3 -3 -83 -3 -83 -82 3 -82 3 -3 83 -3 82
-169 0 -170 0 0 -430z"/>
<path d="M11570 9745 l0 -85 -85 0 -85 0 0 -170 0 -170 85 0 85 0 0 -85 0 -85
343 -2 342 -3 0 -170 0 -170 -255 0 -255 0 -3 88 -3 87 -169 0 -170 0 0 -90 0
-90 85 0 85 0 0 -85 0 -85 430 0 430 0 0 85 0 85 85 0 85 0 0 175 0 175 -85 0
-85 0 0 85 0 85 -345 0 -345 0 0 170 0 170 170 0 169 0 3 -82 3 -83 173 -3
172 -2 0 85 0 85 -85 0 -85 0 0 85 0 85 -345 0 -345 0 0 -85z"/>
<path d="M14650 9745 l0 -85 175 0 175 0 0 85 0 85 -175 0 -175 0 0 -85z"/>
<path d="M12940 9405 l0 -85 -85 0 -85 0 0 -260 0 -260 85 0 85 0 0 -85 0 -85
515 0 515 0 0 85 0 85 -427 2 -428 3 0 255 0 255 428 3 427 2 0 85 0 85 -515
0 -515 0 0 -85z"/>
<path d="M14480 9405 l0 -85 85 0 85 0 0 -260 0 -260 -170 0 -170 0 0 -85 0
-85 515 0 515 0 0 85 0 85 -170 0 -170 0 0 345 0 345 -260 0 -260 0 0 -85z"/>
<path d="M15680 9405 l0 -85 -85 0 -85 0 0 -260 0 -260 85 0 85 0 0 -85 0 -85
430 0 430 0 0 85 0 85 -342 2 -343 3 -3 83 -3 82 431 0 430 0 0 175 0 175 -85
0 -85 0 0 85 0 85 -430 0 -430 0 0 -85z m690 -170 l0 -85 -260 0 -260 0 0 85
0 85 260 0 260 0 0 -85z"/>
<path d="M16880 9060 l0 -430 170 0 170 0 2 343 3 342 255 0 255 0 3 -342 2
-343 170 0 170 0 0 345 0 345 -85 0 -85 0 0 85 0 85 -515 0 -515 0 0 -430z"/>
<path d="M18420 9405 l0 -85 -85 0 -85 0 0 -260 0 -260 85 0 85 0 0 -85 0 -85
515 0 515 0 0 85 0 85 -427 2 -428 3 0 255 0 255 428 3 427 2 0 85 0 85 -515
0 -515 0 0 -85z"/>
<path d="M19790 9405 l0 -85 -85 0 -85 0 0 -260 0 -260 85 0 85 0 0 -85 0 -85
430 0 430 0 0 85 0 85 -342 2 -343 3 -3 83 -3 82 431 0 430 0 0 175 0 175 -85
0 -85 0 0 85 0 85 -430 0 -430 0 0 -85z m688 -172 l3 -83 -261 0 -260 0 0 78
c0 43 3 82 7 86 4 3 119 5 257 4 l251 -3 3 -82z"/>
<path d="M13790 8205 l0 -85 -85 0 -85 0 0 -85 0 -85 -85 0 -85 0 0 -260 0
-260 85 0 85 0 0 -85 0 -85 85 0 85 0 0 -85 0 -85 345 0 345 0 0 85 0 85 85 0
85 0 0 90 0 90 -170 0 -169 0 -3 -87 -3 -88 -164 -3 c-125 -2 -166 1 -173 10
-4 7 -8 48 -8 91 l0 77 -85 0 -85 0 0 255 0 255 85 0 84 0 3 83 3 82 173 3
172 2 0 -85 0 -85 170 0 170 0 0 85 0 85 -85 0 -85 0 0 85 0 85 -345 0 -345 0
0 -85z"/>
<path d="M15160 8205 l0 -85 85 0 85 0 0 -430 0 -430 -170 0 -170 0 0 -85 0
-85 515 0 515 0 0 85 0 85 -170 0 -170 0 0 515 0 515 -260 0 -260 0 0 -85z"/>
<path d="M17570 7775 l0 -515 85 0 85 0 0 -85 0 -85 430 0 430 0 0 85 0 85 85
0 85 0 0 260 0 260 -85 0 -85 0 0 85 0 85 -345 0 -345 0 0 170 0 170 -170 0
-170 0 0 -515z m855 -255 l0 -255 -255 0 -255 0 -3 245 c-1 134 0 250 3 257 3
11 59 13 257 11 l253 -3 0 -255z"/>
<path d="M16190 7605 l0 -345 85 0 85 0 0 -85 0 -85 515 0 515 0 0 430 0 430
-170 0 -170 0 -2 -342 -3 -343 -255 0 -255 0 -3 343 -2 342 -170 0 -170 0 0
-345z"/>
<path d="M7463 14489 c-65 -26 -133 -91 -170 -161 l-28 -53 -3 -333 c-3 -330
-3 -333 20 -380 21 -42 30 -55 65 -94 22 -24 45 -40 91 -66 41 -22 59 -26 137
-26 79 0 95 3 128 24 71 46 135 114 162 172 l26 57 -3 328 c-3 323 -3 329 -27
372 -13 25 -30 51 -37 59 -8 7 -14 17 -14 22 0 8 -46 39 -110 73 -54 30 -172
32 -237 6z"/>
<path d="M13500 14488 c-45 -21 -112 -66 -118 -80 -2 -4 -15 -24 -29 -44 -50
-74 -63 -163 -63 -419 0 -197 3 -243 19 -308 25 -96 67 -156 151 -216 l65 -46
96 0 c78 0 101 3 116 18 11 9 24 17 29 17 5 0 27 16 49 35 22 19 43 35 47 35
4 0 10 10 13 23 4 12 17 32 28 45 20 22 21 35 25 325 5 347 -2 423 -47 489
-87 129 -256 185 -381 126z"/>
<path d="M5482 13120 c-51 -10 -168 -24 -261 -29 -92 -6 -181 -15 -197 -21
-16 -5 -65 -14 -109 -19 -44 -6 -107 -17 -140 -25 -32 -9 -69 -16 -81 -16 -40
0 -143 -60 -184 -108 -49 -58 -85 -158 -76 -217 17 -111 29 -138 91 -200 96
-96 207 -127 331 -91 27 8 90 19 139 25 50 5 104 15 120 21 17 7 106 14 205
17 96 2 226 11 288 19 136 17 551 19 670 3 109 -15 240 7 303 50 46 31 109
101 109 122 0 7 8 21 18 32 14 15 17 38 17 117 0 79 -3 102 -17 117 -10 11
-18 28 -18 39 0 30 -116 132 -159 140 -20 3 -47 14 -61 23 -22 14 -76 16 -460
18 -393 2 -444 0 -528 -17z"/>
<path d="M6585 12051 c-22 -3 -52 -14 -65 -24 -13 -9 -36 -17 -50 -17 -14 0
-42 -9 -63 -20 -20 -11 -45 -20 -55 -20 -9 0 -33 -8 -52 -19 -19 -10 -51 -22
-70 -26 -19 -4 -42 -13 -50 -20 -8 -7 -29 -16 -47 -20 -17 -3 -37 -13 -44 -21
-6 -8 -16 -14 -22 -14 -12 0 -105 -41 -159 -70 -20 -11 -43 -20 -51 -20 -8 0
-24 -9 -37 -20 -13 -11 -55 -36 -94 -56 -39 -19 -107 -55 -151 -79 -44 -24
-116 -62 -160 -85 -101 -52 -164 -91 -267 -161 -15 -11 -31 -19 -36 -19 -5 0
-17 -9 -27 -20 -10 -11 -25 -20 -33 -20 -20 0 -132 -119 -132 -139 0 -9 -9
-33 -20 -54 -46 -86 -9 -225 83 -311 74 -69 124 -89 222 -90 92 0 102 4 287
121 37 24 71 43 74 43 4 0 15 7 25 16 19 17 49 35 154 90 39 20 105 55 147 78
119 63 228 116 353 171 59 26 105 46 175 78 38 18 98 40 170 63 25 8 59 21 75
28 17 8 47 17 68 21 20 4 39 11 42 15 3 5 28 16 57 26 36 12 65 32 99 67 27
28 49 57 49 64 0 7 9 30 20 50 14 27 20 57 20 105 0 49 -6 79 -20 105 -11 21
-20 43 -20 49 0 12 -93 114 -104 114 -4 0 -20 10 -36 21 -23 18 -45 22 -122
25 -51 1 -111 -1 -133 -5z"/>
</g>
</svg>
